<?xml version="1.0" encoding="utf-8"?>
<!-- Generator: Adobe Illustrator 23.0.2, SVG Export Plug-In . SVG Version: 6.00 Build 0)  -->
<svg version="1.1" id="Livello_1" xmlns="http://www.w3.org/2000/svg" xmlns:xlink="http://www.w3.org/1999/xlink" x="0px" y="0px"
	 viewBox="0 0 595.28 168.62" style="enable-background:new 0 0 595.28 168.62;" xml:space="preserve">
<style type="text/css">
	.st0{fill:url(#SVGID_1_);}
	.st1{fill:#FFFFFF;}
	.st2{fill:url(#SVGID_2_);}
</style>
<linearGradient id="SVGID_1_" gradientUnits="userSpaceOnUse" x1="0" y1="215.3544" x2="595.2756" y2="215.3544" gradientTransform="matrix(1 0 0 0.0939 0 65.2922)">
	<stop  offset="0" style="stop-color:#009D4B"/>
	<stop  offset="1" style="stop-color:#00833E"/>
</linearGradient>
<rect class="st0" width="595.28" height="171.03"/>
<g>
	<g>
		<g>
			<g>
				<path class="st1" d="M302.02,126.97c-1.61,0.9-3.72,1.68-6.33,2.34c-2.61,0.65-5.43,0.98-8.44,0.98
					c-3.92,0-7.46-1.08-10.63-3.24c-3.17-2.16-5.45-5.25-6.86-9.27c-9.25,8.95-18.99,13.42-29.24,13.42
					c-6.83,0-12.56-1.96-17.18-5.88c-4.62-3.92-6.93-9.55-6.93-16.88c0-5.12,1.48-9.52,4.45-13.19c2.96-3.67,6.73-6.41,11.3-8.21
					c4.57-1.81,9.32-2.71,14.24-2.71c4.32,0,8.21,0.4,11.68,1.21c3.47,0.81,6.91,1.96,10.33,3.47v-4.37c0-3.01-1.53-5.3-4.6-6.86
					c-3.07-1.56-7.01-2.34-11.83-2.34c-3.52,0-7.59,0.5-12.21,1.51c-4.62,1.01-9.4,2.46-14.32,4.37l-4.52-17.18
					c12.66-5.22,24.12-7.84,34.37-7.84c11.35,0,20,2.66,25.93,7.99c5.93,5.33,8.89,12.46,8.89,21.4v21.4c0,2.92,1.25,4.37,3.77,4.37
					c1.3,0,2.56-0.2,3.77-0.6L302.02,126.97z M241.42,111.22c1.51,0.86,3.47,1.28,5.88,1.28c2.41,0,5.5-0.73,9.27-2.19
					c3.77-1.46,7.71-3.69,11.83-6.71v-0.3c-5.53-1.91-11.3-2.86-17.33-2.86c-3.42,0.1-6.25,0.71-8.52,1.81
					c-2.26,1.11-3.39,2.76-3.39,4.97C239.16,109.03,239.92,110.37,241.42,111.22z"/>
			</g>
			<g>
				<path class="st1" d="M365.1,94.41c4.67,4.12,7.01,9.29,7.01,15.52c0,4.02-1.16,7.64-3.47,10.85c-2.31,3.22-5.53,5.75-9.65,7.61
					c-4.12,1.86-8.79,2.79-14.02,2.79c-10.15,0-18.44-2.91-24.87-8.74v6.78h-15.98v-23.67l10.1-0.75c2.41,3.52,6.18,6.38,11.3,8.59
					c5.12,2.21,9.75,3.32,13.87,3.32c2.81,0,5-0.43,6.56-1.28c1.56-0.85,2.34-1.98,2.34-3.39c0-1.51-1.21-2.96-3.62-4.37
					c-2.41-1.41-7.18-3.11-14.32-5.12c-9.15-2.51-15.88-5.73-20.2-9.65c-4.32-3.92-6.48-8.99-6.48-15.22
					c0-3.92,1.06-7.51,3.17-10.78c2.11-3.26,5.12-5.88,9.04-7.84c3.92-1.96,8.39-2.94,13.42-2.94c9.04,0,16.48,2.86,22.31,8.59
					v-6.63h15.98V81.6l-9.95,0.9c-5.33-7.94-12.46-11.91-21.4-11.91c-2.71,0-4.85,0.4-6.41,1.21c-1.56,0.8-2.34,1.91-2.34,3.32
					c0,1.51,1.18,2.89,3.54,4.15c2.36,1.26,6.81,2.89,13.34,4.9C353.51,86.88,360.42,90.29,365.1,94.41z"/>
			</g>
			<g>
				<path class="st1" d="M439.63,123.2c-3.52,2.51-7.29,4.45-11.3,5.8c-4.02,1.36-8.59,2.04-13.72,2.04
					c-9.14,0-16.28-2.89-21.4-8.67c-5.12-5.78-7.69-13.54-7.69-23.29V76.02h-13.87V58.09h13.87V38.34h22.91v19.75h20.05v17.94
					h-20.05v23.06c0,3.72,0.83,6.63,2.49,8.74c1.66,2.11,4.24,3.17,7.76,3.17c2.21,0,4.32-0.38,6.33-1.13
					c2.01-0.75,4.32-1.93,6.93-3.54L439.63,123.2z"/>
			</g>
			<g>
				<path class="st1" d="M514.84,117.93c-4.72,4.12-10.17,7.36-16.35,9.72c-6.18,2.36-12.94,3.54-20.27,3.54
					c-7.24,0-14.04-1.43-20.42-4.3c-6.38-2.86-11.53-7.03-15.45-12.51c-3.92-5.48-5.88-11.98-5.88-19.52
					c0-7.54,1.96-14.27,5.88-20.2c3.92-5.93,9.09-10.5,15.53-13.72c6.43-3.21,13.36-4.82,20.8-4.82c6.53,0,12.33,0.96,17.41,2.86
					c5.07,1.91,9.04,4.62,11.91,8.14c2.86,3.52,4.3,7.59,4.3,12.21c0,7.04-2.89,12.44-8.67,16.2c-5.78,3.77-12.79,5.65-21.03,5.65
					c-4.62,0-8.87-0.45-12.74-1.36c-3.87-0.9-7.71-2.26-11.53-4.07c0.4,5.12,2.56,9.12,6.48,11.98c3.92,2.86,8.69,4.3,14.32,4.3
					c9.75,0,18.54-3.01,26.38-9.04L514.84,117.93z M469.7,76.48c-3.47,1.81-6.21,4.22-8.21,7.24c4.92,1.61,10,2.41,15.22,2.41
					c4.12-0.1,7.26-0.73,9.42-1.88c2.16-1.15,3.24-2.79,3.24-4.9c0-1.61-0.8-2.94-2.41-3.99c-1.61-1.06-3.77-1.58-6.48-1.58
					C476.76,73.76,473.17,74.67,469.7,76.48z"/>
			</g>
		</g>
		<g>
			<g>
				<path class="st1" d="M89.09,99.34c-2.1,0-4.17-0.85-5.66-2.34c-0.37-0.37-0.7-0.78-0.99-1.22c-0.29-0.43-0.54-0.9-0.74-1.38
					c-0.2-0.48-0.35-0.98-0.45-1.5c-0.1-0.51-0.16-1.04-0.16-1.56s0.06-1.05,0.16-1.56c0.1-0.51,0.25-1.02,0.45-1.5
					c0.2-0.48,0.45-0.95,0.74-1.38c0.29-0.44,0.62-0.85,0.99-1.22c1.86-1.85,4.63-2.71,7.22-2.18c0.51,0.1,1.02,0.25,1.5,0.45
					c0.48,0.2,0.95,0.45,1.38,0.74c0.44,0.29,0.85,0.62,1.22,0.99c1.49,1.49,2.34,3.55,2.34,5.66s-0.85,4.17-2.34,5.66
					c-0.37,0.37-0.78,0.7-1.22,0.99c-0.43,0.29-0.9,0.54-1.38,0.74c-0.48,0.2-0.99,0.35-1.5,0.46
					C90.14,99.29,89.61,99.34,89.09,99.34z"/>
			</g>
			<g>
				<path class="st1" d="M168.74,127.1c-5.39,0-10.11-3.45-11.73-8.6l-9.87-31.26l-9.87,31.26c-1.62,5.14-6.34,8.6-11.73,8.6
					c-5.39,0-10.11-3.45-11.73-8.6l-12.61-39.93c-1.83,0.52-3.84,0.4-5.69-0.49c-3.98-1.92-5.64-6.71-3.72-10.69l4.94-10.2
					c1.43-2.95,4.51-4.73,7.78-4.49c3.27,0.24,6.06,2.44,7.05,5.57l13.98,44.24l9.87-31.26c1.62-5.14,6.34-8.6,11.73-8.6
					c5.39,0,10.11,3.45,11.73,8.6l9.87,31.26l13.98-44.24c0.99-3.12,3.78-5.33,7.05-5.57c3.27-0.24,6.35,1.54,7.78,4.49l14.84,30.65
					c1.92,3.98,0.26,8.76-3.72,10.69c-3.98,1.92-8.76,0.26-10.69-3.72l-6.07-12.54l-11.44,36.22
					C178.84,123.65,174.13,127.1,168.74,127.1z"/>
			</g>
		</g>
	</g>
</g>
</svg>
