<?xml version="1.0" encoding="utf-8"?>
<!-- Generator: Adobe Illustrator 23.0.2, SVG Export Plug-In . SVG Version: 6.00 Build 0)  -->
<svg version="1.1" id="Livello_1" xmlns="http://www.w3.org/2000/svg" xmlns:xlink="http://www.w3.org/1999/xlink" x="0px" y="0px"
	 viewBox="0 0 170.08 170.08" style="enable-background:new 0 0 170.08 170.08;" xml:space="preserve">
<style type="text/css">
	.st0{fill:url(#SVGID_1_);}
	.st1{fill:#FFFFFF;}
	.st2{fill:url(#SVGID_2_);}
</style>
<linearGradient id="SVGID_1_" gradientUnits="userSpaceOnUse" x1="-0.9501" y1="192.5051" x2="170.0787" y2="192.5051" gradientTransform="matrix(1 0 0 0.0939 0 65.5399)">
	<stop  offset="0" style="stop-color:#009D4B"/>
	<stop  offset="1" style="stop-color:#00833E"/>
</linearGradient>
<rect x="-0.95" y="-1.9" class="st0" width="171.03" height="171.03"/>
<g>
	<g>
		<g>
			<g>
				<path class="st1" d="M26.52,95.84c-2.1,0-4.17-0.85-5.66-2.34c-0.37-0.37-0.7-0.78-0.99-1.22c-0.29-0.43-0.54-0.9-0.74-1.38
					c-0.2-0.48-0.35-0.98-0.45-1.5c-0.1-0.51-0.16-1.04-0.16-1.56s0.06-1.05,0.16-1.56c0.1-0.51,0.25-1.02,0.45-1.5
					c0.2-0.48,0.45-0.95,0.74-1.38c0.29-0.44,0.62-0.85,0.99-1.22c1.86-1.85,4.63-2.71,7.22-2.18c0.51,0.1,1.02,0.25,1.5,0.45
					c0.48,0.2,0.95,0.45,1.38,0.74c0.44,0.29,0.85,0.62,1.22,0.99c1.49,1.49,2.34,3.55,2.34,5.66s-0.85,4.17-2.34,5.66
					c-0.37,0.37-0.78,0.7-1.22,0.99c-0.43,0.29-0.9,0.54-1.38,0.74c-0.48,0.2-0.99,0.35-1.5,0.46
					C27.57,95.79,27.04,95.84,26.52,95.84z"/>
			</g>
			<g>
				<path class="st1" d="M106.17,123.61c-5.39,0-10.11-3.45-11.73-8.6l-9.87-31.26l-9.87,31.26c-1.62,5.14-6.34,8.6-11.73,8.6
					s-10.11-3.45-11.73-8.6L38.62,75.08c-1.83,0.52-3.84,0.4-5.69-0.49c-3.98-1.92-5.64-6.71-3.72-10.69l4.94-10.2
					c1.43-2.95,4.51-4.73,7.78-4.49c3.27,0.24,6.06,2.44,7.05,5.57l13.98,44.24l9.87-31.26c1.62-5.14,6.34-8.6,11.73-8.6
					c5.39,0,10.11,3.45,11.73,8.6l9.87,31.26l13.98-44.24c0.99-3.12,3.78-5.33,7.05-5.57c3.27-0.24,6.35,1.54,7.78,4.49l14.84,30.65
					c1.92,3.98,0.26,8.76-3.72,10.69c-3.98,1.92-8.76,0.26-10.69-3.72l-6.07-12.54l-11.44,36.22
					C116.27,120.15,111.56,123.61,106.17,123.61z"/>
			</g>
		</g>
	</g>
</g>
</svg>
